<svg width="100" height="100" viewBox="0 0 26.458 26.458" xmlns="http://www.w3.org/2000/svg">
   <path style="fill:#3776a4;" d="M 3.7041654,1.3229177 A 2.3812499,2.3812498 0 0 0 3.33163,1.3522182 2.3812499,2.3812498 0 0 0 2.9683964,1.4396547 2.3812499,2.3812498 0 0 0 2.6233011,1.5824367 2.3812499,2.3812498 0 0 0 2.304716,1.7777736 2.3812499,2.3812498 0 0 0 2.0205473,2.0205495 2.3812499,2.3812498 0 0 0 1.7777714,2.3047182 2.3812499,2.3812498 0 0 0 1.5824345,2.6233033 2.3812499,2.3812498 0 0 0 1.4396525,2.9683986 2.3812499,2.3812498 0 0 0 1.352216,3.3316322 2.3812499,2.3812498 0 0 0 1.3229155,3.7041675 L 13.229165,20.372917 25.135414,3.7046326 a 2.3812499,2.3812498 0 0 0 0,-4.651e-4 2.3812499,2.3812498 0 0 0 -9.3e-4,-0.061392 2.3812499,2.3812498 0 0 0 -0.0023,-0.061392 2.3812499,2.3812498 0 0 0 -0.0037,-0.060926 2.3812499,2.3812498 0 0 0 -0.0056,-0.060926 2.3812499,2.3812498 0 0 0 -0.007,-0.060926 2.3812499,2.3812498 0 0 0 -0.0088,-0.060926 2.3812499,2.3812498 0 0 0 -0.01023,-0.060461 2.3812499,2.3812498 0 0 0 -0.01163,-0.059997 2.3812499,2.3812498 0 0 0 -0.01349,-0.059997 2.3812499,2.3812498 0 0 0 -0.01488,-0.059531 2.3812499,2.3812498 0 0 0 -0.01628,-0.059066 2.3812499,2.3812498 0 0 0 -0.01814,-0.058601 2.3812499,2.3812498 0 0 0 -0.01907,-0.058136 2.3812499,2.3812498 0 0 0 -0.02093,-0.057671 2.3812499,2.3812498 0 0 0 -0.02232,-0.057206 2.3812499,2.3812498 0 0 0 -0.02372,-0.056275 2.3812499,2.3812498 0 0 0 -0.02558,-0.055811 2.3812499,2.3812498 0 0 0 -0.02651,-0.055345 2.3812499,2.3812498 0 0 0 -0.02837,-0.054415 2.3812499,2.3812498 0 0 0 -0.0293,-0.053951 2.3812499,2.3812498 0 0 0 -0.03116,-0.05302 2.3812499,2.3812498 0 0 0 -0.03209,-0.05209 2.3812499,2.3812498 0 0 0 -0.03349,-0.05116 2.3812499,2.3812498 0 0 0 -0.03488,-0.050694 2.3812499,2.3812498 0 0 0 -0.03628,-0.049299 2.3812499,2.3812498 0 0 0 -0.03721,-0.048834 2.3812499,2.3812498 0 0 0 -0.0386,-0.047439 2.3812499,2.3812498 0 0 0 -0.04,-0.046509 2.3812499,2.3812498 0 0 0 -0.04139,-0.045579 2.3812499,2.3812498 0 0 0 -0.04186,-0.044183 2.3812499,2.3812498 0 0 0 -0.04372,-0.043718 2.3812499,2.3812498 0 0 0 -0.04418,-0.041858 2.3812499,2.3812498 0 0 0 -0.04558,-0.041393 2.3812499,2.3812498 0 0 0 -0.04651,-0.039998 2.3812499,2.3812498 0 0 0 -0.04744,-0.038602 2.3812499,2.3812498 0 0 0 -0.04883,-0.037207 2.3812499,2.3812498 0 0 0 -0.0493,-0.036277 2.3812499,2.3812498 0 0 0 -0.05069,-0.034882 2.3812499,2.3812498 0 0 0 -0.05116,-0.033486 2.3812499,2.3812498 0 0 0 -0.05209,-0.032091 2.3812499,2.3812498 0 0 0 -0.05302,-0.031161 2.3812499,2.3812498 0 0 0 -0.05395,-0.0293 2.3812499,2.3812498 0 0 0 -0.05441,-0.02837 2.3812499,2.3812498 0 0 0 -0.05535,-0.02651 2.3812499,2.3812498 0 0 0 -0.05581,-0.02558 2.3812499,2.3812498 0 0 0 -0.05628,-0.02372 2.3812499,2.3812498 0 0 0 -0.05721,-0.022324 2.3812499,2.3812498 0 0 0 -0.05767,-0.020929 2.3812499,2.3812498 0 0 0 -0.05814,-0.019069 2.3812499,2.3812498 0 0 0 -0.0586,-0.018139 2.3812499,2.3812498 0 0 0 -0.05907,-0.016278 2.3812499,2.3812498 0 0 0 -0.05953,-0.014883 2.3812499,2.3812498 0 0 0 -0.06,-0.013488 2.3812499,2.3812498 0 0 0 -0.06,-0.011627 2.3812499,2.3812498 0 0 0 -0.06046,-0.010232 2.3812499,2.3812498 0 0 0 -0.06093,-0.00884 2.3812499,2.3812498 0 0 0 -0.06093,-0.00698 2.3812499,2.3812498 0 0 0 -0.06094,-0.00558 2.3812499,2.3812498 0 0 0 -0.06093,-0.00372 2.3812499,2.3812498 0 0 0 -0.06139,-0.00233 2.3812499,2.3812498 0 0 0 -0.06139,-9.31e-4 z M 1.3229155,8.4666672 V 22.754167 a 2.3812499,2.3812498 0 0 0 0.029301,0.372535 2.3812499,2.3812498 0 0 0 0.087436,0.363233 2.3812499,2.3812498 0 0 0 0.142782,0.345096 2.3812499,2.3812498 0 0 0 0.1953369,0.318585 2.3812499,2.3812498 0 0 0 0.2427759,0.284169 2.3812499,2.3812498 0 0 0 0.2841687,0.242776 2.3812499,2.3812498 0 0 0 0.3185851,0.195337 2.3812499,2.3812498 0 0 0 0.3450953,0.142781 2.3812499,2.3812498 0 0 0 0.3632336,0.08743 2.3812499,2.3812498 0 0 0 0.3725354,0.0293 H 13.229165 Z M 13.229165,25.135416 h 9.524999 a 2.3812499,2.3812498 0 0 0 0.372535,-0.0293 2.3812499,2.3812498 0 0 0 0.363234,-0.08744 2.3812499,2.3812498 0 0 0 0.345095,-0.142781 2.3812499,2.3812498 0 0 0 0.318586,-0.195337 2.3812499,2.3812498 0 0 0 0.284168,-0.242776 2.3812499,2.3812498 0 0 0 0.242776,-0.284169 2.3812499,2.3812498 0 0 0 0.195337,-0.318585 2.3812499,2.3812498 0 0 0 0.142781,-0.345095 2.3812499,2.3812498 0 0 0 0.08744,-0.363234 2.3812499,2.3812498 0 0 0 0.0293,-0.372535 2.3812499,2.3812498 0 0 0 0,-0.0023 2.3812499,2.3812498 0 0 0 0,-0.0042 2.3812499,2.3812498 0 0 0 0,-0.0051 2.3812499,2.3812498 0 0 0 0,-0.0042 2.3812499,2.3812498 0 0 0 0,-0.0042 2.3812499,2.3812498 0 0 0 0,-0.0051 2.3812499,2.3812498 0 0 0 0,-0.0042 2.3812499,2.3812498 0 0 0 0,-0.0019 v -0.0014 a 2.3812499,2.3812498 0 0 0 0,-4.65e-4 2.3812499,2.3812498 0 0 0 0,-4.65e-4 V 8.4666672 Z"/>
</svg>